<svg width="38" height="30" viewBox="0 0 38 30" fill="none" xmlns="http://www.w3.org/2000/svg">
<mask id="path-1-outside-1_2017_3470" maskUnits="userSpaceOnUse" x="14" y="5" width="24" height="21" fill="black">
<rect fill="white" x="14" y="5" width="24" height="21"/>
<path d="M19.8847 6.018H28.9147L35.8027 15.3L25.6387 24.582H16.6087L26.8147 15.3L19.8847 6.018Z"/>
</mask>
<path d="M19.8847 6.018V5.018H17.8901L19.0834 6.61626L19.8847 6.018ZM28.9147 6.018L29.7177 5.42208L29.4179 5.018H28.9147V6.018ZM35.8027 15.3L36.477 16.0384L37.1439 15.4294L36.6057 14.7041L35.8027 15.3ZM25.6387 24.582V25.582H26.0266L26.313 25.3204L25.6387 24.582ZM16.6087 24.582L15.9358 23.8422L14.0229 25.582H16.6087V24.582ZM26.8147 15.3L27.4875 16.0398L28.159 15.4291L27.616 14.7017L26.8147 15.3ZM19.8847 7.018H28.9147V5.018H19.8847V7.018ZM28.1116 6.61392L34.9996 15.8959L36.6057 14.7041L29.7177 5.42208L28.1116 6.61392ZM35.1283 14.5616L24.9643 23.8436L26.313 25.3204L36.477 16.0384L35.1283 14.5616ZM25.6387 23.582H16.6087V25.582H25.6387V23.582ZM17.2815 25.3218L27.4875 16.0398L26.1418 14.5602L15.9358 23.8422L17.2815 25.3218ZM27.616 14.7017L20.686 5.41974L19.0834 6.61626L26.0134 15.8983L27.616 14.7017Z" fill="#27326F" mask="url(#path-1-outside-1_2017_3470)"/>
<mask id="path-3-outside-2_2017_3470" maskUnits="userSpaceOnUse" x="-1" y="5" width="24" height="21" fill="black">
<rect fill="white" x="-1" y="5" width="24" height="21"/>
<path d="M4.88467 6.018H13.9147L20.8027 15.3L10.6387 24.582H1.60867L11.8147 15.3L4.88467 6.018Z"/>
</mask>
<path d="M4.88467 6.018V5.018H2.8901L4.08337 6.61626L4.88467 6.018ZM13.9147 6.018L14.7177 5.42208L14.4179 5.018H13.9147V6.018ZM20.8027 15.3L21.477 16.0384L22.1439 15.4294L21.6057 14.7041L20.8027 15.3ZM10.6387 24.582V25.582H11.0266L11.313 25.3204L10.6387 24.582ZM1.60867 24.582L0.935848 23.8422L-0.977148 25.582H1.60867V24.582ZM11.8147 15.3L12.4875 16.0398L13.159 15.4291L12.616 14.7017L11.8147 15.3ZM4.88467 7.018H13.9147V5.018H4.88467V7.018ZM13.1116 6.61392L19.9996 15.8959L21.6057 14.7041L14.7177 5.42208L13.1116 6.61392ZM20.1283 14.5616L9.96433 23.8436L11.313 25.3204L21.477 16.0384L20.1283 14.5616ZM10.6387 23.582H1.60867V25.582H10.6387V23.582ZM2.2815 25.3218L12.4875 16.0398L11.1418 14.5602L0.935848 23.8422L2.2815 25.3218ZM12.616 14.7017L5.68598 5.41974L4.08337 6.61626L11.0134 15.8983L12.616 14.7017Z" fill="#27326F" mask="url(#path-3-outside-2_2017_3470)"/>
</svg>
