<svg width="78" height="30" viewBox="0 0 78 30" fill="none" xmlns="http://www.w3.org/2000/svg">
<path d="M50.4704 2.10156H49.4731L50.0697 2.90069L59.1308 15.037L45.7222 27.2317L44.7657 28.1016H46.0586H58.2192H58.4132L58.5564 27.9708L72.2442 15.4708L72.5776 15.1662L72.3085 14.8036L63.0325 2.3036L62.8826 2.10156H62.631H50.4704Z" stroke="#FFF100"/>
<path d="M29.9743 2.10156H28.977L29.5736 2.90069L38.6347 15.037L25.2261 27.2317L24.2696 28.1016H25.5625H37.7231H37.9171L38.0603 27.9708L51.7481 15.4708L52.0815 15.1662L51.8124 14.8036L42.5364 2.3036L42.3865 2.10156H42.1349H29.9743Z" stroke="#FFF100" stroke-opacity="0.6"/>
<path d="M8.66176 2.10156H7.66448L8.26111 2.90069L17.3222 15.037L3.91359 27.2317L2.95709 28.1016H4.25H16.4106H16.6046L16.7478 27.9708L30.4356 15.4708L30.769 15.1662L30.4999 14.8036L21.2239 2.3036L21.074 2.10156H20.8224H8.66176Z" stroke="#FFF100" stroke-opacity="0.4"/>
</svg>
