<svg width="174" height="35" viewBox="0 0 174 35" fill="none" xmlns="http://www.w3.org/2000/svg">
<g clip-path="url(#clip0_1934_720)">
<path d="M33.6456 0.0151826H53.5481C53.663 0.0151826 53.7783 0.0143317 53.8932 0.0151826C55.293 0.026245 55.8946 0.691691 55.6934 2.07577C55.4955 3.43772 55.2607 4.79499 55.0177 6.15013C54.8007 7.35976 54.0566 7.99415 52.8337 8.05755C52.6423 8.06733 52.4504 8.06435 52.2585 8.06435C40.0511 8.06435 27.8438 8.06095 15.6364 8.07542C15.0203 8.07627 14.3753 8.14732 13.7937 8.33879C12.2705 8.84 11.5561 10.0411 11.3081 11.5469C10.7107 15.1694 10.1201 18.7932 9.56488 22.4221C9.46617 23.0671 9.46234 23.7564 9.57467 24.3971C9.7806 25.5706 10.7903 26.2628 12.1875 26.3186C12.4428 26.3288 12.6989 26.3233 12.9542 26.3233C25.1105 26.3233 37.2668 26.3233 49.4227 26.325C49.6775 26.325 49.9367 26.3224 50.1873 26.362C51.2008 26.5224 51.6756 27.1444 51.542 28.169C51.4318 29.0161 51.2841 29.8581 51.1459 30.7014C51.0408 31.3426 50.9442 31.9864 50.8085 32.6216C50.5706 33.7334 49.8426 34.3252 48.7049 34.3686C48.5773 34.3733 48.4492 34.3729 48.3216 34.3729C35.1684 34.3729 22.0152 34.3729 8.86199 34.3729C7.22689 34.3729 5.62369 34.1776 4.11623 33.5066C1.92119 32.5297 0.638804 30.8146 0.187799 28.4749C-0.103227 26.9657 -0.0262161 25.4532 0.21588 23.9423C0.570728 21.7268 0.895792 19.5063 1.25872 17.2921C1.75568 14.2618 2.18754 11.2167 2.81512 8.21284C3.32441 5.77571 4.50256 3.64748 6.55123 2.10725C7.9285 1.07207 9.50319 0.488738 11.1915 0.260257C12.339 0.104958 13.5052 0.0292235 14.6634 0.0249687C20.9906 0.00326941 27.3179 0.0147571 33.6456 0.0147571" fill="white"/>
<path d="M59.9994 34.3697C59.1046 34.3697 58.2094 34.388 57.315 34.365C56.2079 34.3365 55.6808 33.7706 55.7123 32.6708C55.7208 32.3661 55.768 32.0615 55.8157 31.7594C56.2135 29.241 56.6147 26.723 57.0168 24.205C57.415 21.7122 57.8167 19.2202 58.2136 16.7273C58.6085 14.2472 58.9961 11.7654 59.3935 9.28528C59.7947 6.7805 60.1862 4.27401 60.6176 1.77434C60.8048 0.688946 61.5392 0.0528582 62.6352 0.0320099C64.4754 -0.00287924 66.3169 -0.00841049 68.1566 0.0332862C69.3671 0.0609422 69.8692 0.846798 69.6517 2.21385C68.9127 6.85963 68.1758 11.5063 67.4346 16.1516C66.8321 19.9286 66.2232 23.7043 65.6186 27.4808C65.3565 29.1176 65.1072 30.7561 64.8353 32.3908C64.6132 33.7272 63.8521 34.362 62.4922 34.3714C61.6613 34.3769 60.8303 34.3727 59.9998 34.3727V34.3688L59.9994 34.3697Z" fill="white"/>
<path d="M100.914 0.0109171C103.112 0.0109171 105.31 0.0104916 107.509 0.0109171C108.276 0.0109171 108.579 0.222805 108.847 0.953774C112.666 11.3801 116.485 21.8064 120.303 32.2336C120.684 33.2764 119.931 34.3622 118.814 34.3652C115.938 34.3728 113.062 34.369 110.187 34.3665C109.596 34.366 109.257 34.1171 109.043 33.5355C108.568 32.245 108.098 30.9529 107.624 29.662C107.353 28.9259 107.04 28.7068 106.249 28.7063C99.808 28.7055 93.3663 28.7059 86.925 28.7059C86.4523 28.7059 85.9783 28.7251 85.5064 28.7017C84.7448 28.6638 84.1853 28.9799 83.7522 29.5913C82.8442 30.8724 81.9086 32.134 81.0117 33.4223C80.5573 34.075 79.9974 34.3877 79.1813 34.3788C76.4595 34.349 73.7369 34.3635 71.0147 34.3711C70.5211 34.3724 70.1042 34.2648 69.8519 33.7997C69.5876 33.3134 69.6944 32.8518 69.9897 32.4331C70.8802 31.1711 71.7852 29.919 72.6868 28.6647C79.326 19.4284 85.9685 10.1947 92.6 0.952923C93.0642 0.305772 93.6237 -0.0107823 94.4346 0.000280137C96.5943 0.0292126 98.7545 0.0100662 100.914 0.0100662" fill="white"/>
<path d="M161.685 0.202878H160.296C152.382 -0.0187951 140.483 0.0131158 131.542 0.0135413C131.385 0.0135413 131.229 0.0118395 131.073 0.0203491C129.94 0.0811922 129.18 0.686646 128.986 1.81033C128.546 4.35468 128.149 6.90626 127.74 9.45572C127.336 11.9801 126.941 14.5057 126.539 17.0305C126.135 19.568 125.727 22.1047 125.321 24.6418C124.912 27.2049 124.504 29.7676 124.098 32.3311C124.052 32.6255 124.003 32.9225 123.994 33.2194C123.957 34.387 124.493 34.9686 125.665 34.9818C127.434 35.0013 129.204 34.9975 130.974 34.9856C132.263 34.9771 133.06 34.318 133.269 33.0493C133.591 31.1001 133.89 29.1468 134.194 27.1947C134.523 26.2608 135.45 25.6502 136.454 25.7532L136.229 25.7157C136.579 25.7472 136.928 25.7787 137.281 25.797C139.373 25.9064 141.473 25.9838 143.569 25.9944C145.446 26.0042 147.322 25.9974 149.198 25.988C149.669 26.0719 150.094 26.3042 150.414 26.6497L154.112 34.2636C154.431 34.6495 154.9 34.9116 155.428 34.9996C157.764 34.9996 163.845 34.9988 167.148 34.9996C167.582 34.9996 167.832 34.8835 167.722 34.4342C166.681 32.7765 163.11 27.8627 161.551 25.7306C162.092 25.6749 162.632 25.6026 163.17 25.517V25.5149C169.022 24.8873 173.553 20.6181 173.553 15.4341V12.2035C173.553 5.5758 169.181 0.202878 161.684 0.202878" fill="white"/>
<path d="M155.672 5.82031C155.376 5.82031 155.086 5.84074 154.799 5.87265V5.82031C93.7936 9.52324 83.3809 30.2337 83.3809 30.2337C107.971 16.5696 154.799 20.418 154.799 20.418V20.3657C155.086 20.3976 155.376 20.418 155.672 20.418C159.847 20.418 163.231 17.1503 163.231 13.1194C163.231 9.0884 159.847 5.82074 155.672 5.82074" fill="#27326F"/>
<path d="M161.752 13.4363C161.957 12.01 160.997 10.3055 160.997 10.3055C137.009 9.9759 116.043 13.2715 93 22.4992C116.988 15.2489 132.758 13.1074 160.241 16.5671C161.186 15.7432 161.548 14.8626 161.752 13.4363Z" fill="#FFF201"/>
<path d="M119.631 13.4371C133.608 10.1647 149.852 9.15276 160.618 9.63757C159.181 8.22636 156.598 7.42926 153.063 7.50494C144.684 7.85774 126.619 10.3062 119.631 13.4371Z" fill="url(#paint0_linear_1934_720)"/>
<path d="M119.443 16.8976C125.774 15.4633 146.231 15.4765 159.864 17.1075C159.864 17.1075 158.919 19.3693 148.207 18.0827C137.494 16.7961 131.163 16.7244 119.443 16.8976Z" fill="#F0C32D"/>
</g>
<defs>
<linearGradient id="paint0_linear_1934_720" x1="119.442" y1="9.81187" x2="160.618" y2="9.81187" gradientUnits="userSpaceOnUse">
<stop stop-color="#F5E519"/>
<stop offset="1" stop-color="#F0C52D"/>
</linearGradient>
<clipPath id="clip0_1934_720">
<rect width="173.552" height="35" fill="white"/>
</clipPath>
</defs>
</svg>
