<svg width="26" height="25" viewBox="0 0 26 25" fill="none" xmlns="http://www.w3.org/2000/svg">
<path fill-rule="evenodd" clip-rule="evenodd" d="M21.4826 3.63286C20.327 2.47665 18.9541 1.56044 17.4429 0.93697C15.9317 0.3135 14.3122 -0.00491429 12.6774 5.73322e-05C5.81695 5.73322e-05 0.232143 5.55696 0.229352 12.3884C0.226317 14.5637 0.799717 16.701 1.89118 18.5826L0.125 25L6.72376 23.2773C8.55032 24.2669 10.595 24.7848 12.6724 24.784H12.6774C19.5373 24.784 25.1216 19.2266 25.1249 12.3957C25.1291 10.7665 24.8092 9.15282 24.1839 7.64844C23.5586 6.14407 22.6404 4.77907 21.4826 3.63286ZM12.6774 22.6931H12.673C10.8211 22.6936 9.00283 22.198 7.40735 21.2578L7.02956 21.0346L3.11383 22.0569L4.15903 18.2573L3.91294 17.8666C2.87744 16.2272 2.32882 14.3275 2.33091 12.3884C2.33091 6.71154 6.97431 2.09269 12.6813 2.09269C15.419 2.0878 18.0466 3.17055 19.9861 5.10279C21.9255 7.03503 23.0181 9.65852 23.0234 12.3962C23.0211 18.0737 18.38 22.6931 12.6774 22.6931ZM18.3521 14.9816C18.0413 14.8265 16.5106 14.0776 16.2271 13.9744C15.9436 13.8711 15.7343 13.8192 15.5273 14.1295C15.3203 14.4398 14.7237 15.134 14.5424 15.3432C14.361 15.5525 14.1797 15.5754 13.8688 15.4202C13.558 15.2651 12.5552 14.9386 11.3672 13.884C10.4425 13.0631 9.81861 12.0497 9.63725 11.74C9.45589 11.4303 9.61772 11.2623 9.77341 11.1083C9.91348 10.9693 10.0842 10.7467 10.2399 10.5659C10.3956 10.3851 10.4475 10.2556 10.5508 10.0491C10.654 9.84267 10.6027 9.66186 10.5251 9.50729C10.4475 9.35271 9.82531 7.82872 9.56638 7.20875C9.31359 6.60495 9.05746 6.68698 8.86661 6.6775C8.68525 6.66857 8.47598 6.66634 8.27007 6.66634C8.11265 6.67043 7.95777 6.70694 7.8151 6.77357C7.67242 6.84021 7.54501 6.93554 7.44083 7.05361C7.15567 7.36388 6.3521 8.11388 6.3521 9.6362C6.3521 11.1585 7.46817 12.6317 7.62219 12.8382C7.77621 13.0447 9.81527 16.1713 12.9352 17.5123C13.5146 17.7604 14.1065 17.978 14.7087 18.1641C15.4536 18.3996 16.1317 18.3666 16.6674 18.2868C17.265 18.1981 18.5089 17.538 18.7673 16.8148C19.0256 16.0915 19.0262 15.4721 18.9486 15.3432C18.871 15.2143 18.6635 15.1362 18.3521 14.9816Z" fill="white"/>
</svg>
