<svg width="24" height="20" viewBox="0 0 24 20" fill="none" xmlns="http://www.w3.org/2000/svg">
<g clip-path="url(#clip0_2331_1381)">
<path d="M23.5947 7.57422C23.3653 6.30384 22.8259 5.11255 21.9943 4.03241C21.0524 2.81289 19.7639 1.79722 18.2718 1.09129C16.7595 0.376832 15.0902 0.00315156 13.3968 2.11676e-06C12.9224 -0.000291012 12.4486 0.0298607 11.9786 0.0902459C10.0192 0.337981 8.09133 1.1007 6.55122 2.24181C4.81594 3.52544 3.69701 5.17631 3.31375 7.01533C3.19962 7.56202 3.15055 8.16516 3.10334 8.75192C3.029 9.6676 2.95465 10.6129 2.64276 11.2317C2.43124 11.6551 2.11415 11.9376 1.25803 11.9376C1.02722 11.9377 0.80098 11.998 0.604683 12.1118C0.408386 12.2256 0.249795 12.3884 0.146696 12.582C0.0435959 12.7755 6.43674e-05 12.9922 0.0209819 13.2076C0.0418995 13.4231 0.126439 13.6288 0.265121 13.8017C3.16394 17.4066 8.04598 17.8237 11.4656 17.8237C11.5496 17.8237 11.6355 17.8237 11.7176 17.8237H12.1923C12.3039 17.8237 12.4154 17.8237 12.5317 17.8237C14.1254 17.8237 15.8116 17.7498 17.3487 17.2115C18.6305 16.7634 19.8509 16.0397 20.8773 15.1157C21.9873 14.1178 22.8014 12.9394 23.2322 11.7101C23.7188 10.3247 23.8397 8.93485 23.5947 7.57422Z" fill="#FFFDF5"/>
<path d="M23.5944 7.57422C23.3651 6.30384 22.8257 5.11255 21.9941 4.03241C21.0521 2.81289 19.7637 1.79722 18.2715 1.09129C16.7593 0.376832 15.09 0.00315156 13.3965 2.11676e-06C12.9222 -0.000291012 12.4483 0.0298607 11.9784 0.0902459C10.0189 0.337981 8.09109 1.1007 6.55097 2.24181C4.8157 3.52544 3.69677 5.17631 3.3135 7.01533C3.19938 7.56202 3.15031 8.16516 3.1031 8.75192C3.02875 9.6676 2.9544 10.6129 2.64252 11.2317C2.431 11.6551 2.1139 11.9376 1.25779 11.9376C1.02698 11.9377 0.800735 11.998 0.604439 12.1118C0.408142 12.2256 0.249551 12.3884 0.146451 12.582C0.0433517 12.7755 -0.000179773 12.9922 0.0207378 13.2076C0.0416554 13.4231 0.126195 13.6288 0.264877 13.8017C3.16369 17.4066 8.04574 17.8237 11.4654 17.8237C11.5494 17.8237 11.6352 17.8237 11.7174 17.8237H12.1921C12.3036 17.8237 12.4151 17.8237 12.5315 17.8237C14.1251 17.8237 15.8114 17.7498 17.3485 17.2115C18.6302 16.7634 19.8507 16.0397 20.877 15.1157C21.987 14.1178 22.8011 12.9394 23.232 11.7101C23.7186 10.3247 23.8394 8.93485 23.5944 7.57422ZM22.0525 11.3456C21.2767 13.5596 19.1128 15.3526 16.915 16.1192C15.4827 16.6199 13.8088 16.6575 12.5322 16.6575C12.3092 16.6575 12.0981 16.6575 11.9021 16.6575C11.8356 16.6575 11.7724 16.6575 11.7111 16.6575H11.4654C8.25577 16.6575 3.8239 16.2899 1.25891 13.101C4.77295 13.101 4.07966 9.42161 4.53504 7.23868C5.22647 3.91185 8.73568 1.67491 12.1445 1.24321C12.5596 1.19115 12.9778 1.16484 13.3965 1.16446C18.9964 1.16516 23.9796 5.85087 22.0525 11.3456Z" fill="#3F3D37"/>
<path d="M11.7997 6.96856C11.7997 7.18986 11.7298 7.40621 11.5987 7.59024C11.4676 7.77427 11.2812 7.91773 11.0631 8.00246C10.8449 8.0872 10.6049 8.1094 10.3734 8.06627C10.1418 8.02314 9.92907 7.91661 9.7621 7.76016C9.59513 7.6037 9.4814 7.40435 9.43532 7.18731C9.38923 6.97027 9.41285 6.7453 9.50318 6.54084C9.59351 6.33638 9.74651 6.16163 9.94281 6.03868C10.1391 5.91572 10.3699 5.8501 10.606 5.8501C10.9225 5.8501 11.2261 5.96793 11.4499 6.17767C11.6738 6.38741 11.7996 6.6719 11.7997 6.96856Z" fill="#3F3D37"/>
<path d="M17.3741 6.96856C17.3741 7.18978 17.3041 7.40602 17.173 7.58995C17.0419 7.77388 16.8555 7.91724 16.6375 8.00189C16.4194 8.08655 16.1795 8.1087 15.948 8.06554C15.7166 8.02238 15.5039 7.91586 15.3371 7.75944C15.1702 7.60302 15.0565 7.40373 15.0105 7.18677C14.9644 6.96981 14.9881 6.74492 15.0784 6.54055C15.1687 6.33617 15.3216 6.16149 15.5179 6.03859C15.7141 5.91569 15.9448 5.8501 16.1808 5.8501C16.4973 5.8501 16.8008 5.96794 17.0246 6.17769C17.2484 6.38744 17.3741 6.67193 17.3741 6.96856Z" fill="#3F3D37"/>
<path d="M13.3508 12.9645C11.3285 12.9645 9.5074 11.722 9.17321 10.0958C9.14579 9.94561 9.18228 9.79129 9.27485 9.66598C9.36741 9.54067 9.50868 9.45436 9.66836 9.42555C9.82804 9.39673 9.9934 9.42772 10.129 9.51186C10.2646 9.596 10.3596 9.7266 10.3936 9.87563C10.5899 10.8321 11.8114 11.8387 13.4396 11.799C15.1355 11.7572 16.2559 10.8066 16.4879 9.88922C16.5057 9.81399 16.5393 9.74282 16.5867 9.67984C16.6341 9.61686 16.6944 9.56333 16.764 9.52235C16.8336 9.48137 16.9113 9.45375 16.9924 9.44111C17.0735 9.42846 17.1565 9.43103 17.2365 9.44868C17.3166 9.46632 17.3921 9.49868 17.4587 9.54389C17.5252 9.58909 17.5816 9.64624 17.6245 9.71201C17.6673 9.77779 17.6958 9.85088 17.7083 9.92706C17.7208 10.0032 17.717 10.081 17.6972 10.1558C17.5113 10.9046 16.995 11.5986 16.2474 12.1098C15.4701 12.6425 14.5106 12.9377 13.4731 12.9631C13.4326 12.9631 13.3921 12.9631 13.3515 12.9631" fill="#3F3D37"/>
<path d="M5.38721 17.6908V17.6908C5.38721 17.3404 5.49788 16.9949 5.70958 16.698C5.92161 16.4005 6.22647 16.1641 6.58916 16.0232C6.95204 15.8824 7.353 15.8451 7.74013 15.9173C8.12718 15.9894 8.47857 16.1668 8.75139 16.4226C9.02386 16.678 9.20537 16.9993 9.27852 17.344C9.35161 17.6884 9.31444 18.0458 9.17009 18.3724C9.02552 18.6996 8.7783 18.9844 8.45456 19.1872C8.13053 19.3901 7.74645 19.5002 7.35109 19.5002H7.35102C7.08878 19.5002 6.82978 19.4518 6.58907 19.3583L6.40814 19.8245L6.58907 19.3583C6.3484 19.2649 6.13173 19.1287 5.95069 18.9591C5.76971 18.7894 5.62801 18.5898 5.53201 18.3725C5.43605 18.1553 5.38717 17.9238 5.38721 17.6908Z" fill="#FFFDF5" stroke="#3F3D37"/>
<path d="M15.9034 19.4999H15.9033C15.641 19.4999 15.382 19.4515 15.1413 19.3581C14.9006 19.2646 14.684 19.1285 14.5029 18.9588C14.322 18.7891 14.1803 18.5895 14.0843 18.3722C13.9883 18.155 13.9394 17.9235 13.9395 17.6906L13.9395 17.6904C13.9394 17.3399 14.0501 16.9944 14.2618 16.6973C14.4738 16.3998 14.7787 16.1632 15.1415 16.0224C15.5045 15.8814 15.9055 15.8441 16.2927 15.9163C16.6799 15.9884 17.0314 16.1659 17.3043 16.4217C17.5768 16.6771 17.7584 16.9986 17.8315 17.3434C17.9046 17.6879 17.8674 18.0453 17.723 18.3721C17.5784 18.6993 17.3311 18.9842 17.0072 19.187C16.6831 19.3899 16.2989 19.4999 15.9034 19.4999Z" fill="#FFFDF5" stroke="#3F3D37"/>
</g>
<defs>
<clipPath id="clip0_2331_1381">
<rect width="23.7013" height="20" fill="white" transform="translate(0.0166016)"/>
</clipPath>
</defs>
</svg>
