<svg xmlns="http://www.w3.org/2000/svg">

<symbol id="arrow-prev" viewBox="0 0 100 100"><path fill="currentColor" d="M41.62,36.03c.19,0,.37.07.52.21.29.29.29.75,0,1.04l-12.45,12.55s.1-.02.15-.02h42.45c.41,0,.74.33.74.74s-.33.74-.74.74H29.84c-.05,0-.1,0-.15-.02l12.45,12.55c.29.29.28.75,0,1.04-.29.29-.76.29-1.04,0l-13.68-13.79c-.29-.29-.29-.75,0-1.04l13.68-13.79c.14-.14.33-.22.52-.22ZM29.12,50.69s-.01-.09-.01-.14,0-.1.01-.14l-.14.14.14.14Z"/></symbol>

<symbol id="arrow-next" viewBox="0 0 100 100"><path fill="currentColor" d="M58.61,65.07c-.19,0-.37-.07-.52-.21-.29-.29-.29-.75,0-1.04l12.45-12.55s-.1.02-.15.02H27.94c-.41,0-.74-.33-.74-.74s.33-.74.74-.74h42.45c.05,0,.1,0,.15.02l-12.45-12.55c-.29-.29-.28-.75,0-1.04.29-.29.76-.29,1.04,0l13.68,13.79c.29.29.29.75,0,1.04l-13.68,13.79c-.14.14-.33.22-.52.22ZM71.11,50.41s.01.09.01.14,0,.1-.01.14l.14-.14-.14-.14Z"/></symbol>

</svg>