<svg width="1357" height="296" viewBox="0 0 1357 296" fill="none" xmlns="http://www.w3.org/2000/svg">
<path d="M1340.56 55.8353C1340.58 55.8735 1340.6 55.9159 1340.63 55.9626C1340.76 56.2134 1340.96 56.5858 1341.22 57.0703C1341.72 58.0394 1342.44 59.4567 1343.3 61.2459C1345 64.8247 1347.24 69.8889 1349.34 75.8285C1353.56 87.722 1357.26 103.064 1355.26 117.007C1351.25 144.975 1344.17 162.192 1325.8 178.292C788.127 110.63 477.74 151.692 10.8973 291.987C460.931 113.339 871.432 49.4188 1340.56 55.8353Z" stroke="#FFF100" stroke-opacity="0.35"/>
<path d="M1184.43 0.597152C1253.32 -0.876481 1303.74 14.4727 1332.11 41.5933C1121.11 32.2327 804.216 51.9268 530.31 115.364C600.009 85.4039 720.637 58.7093 844.59 38.5369C971.508 17.882 1101.85 4.07499 1184.43 0.597152Z" stroke="#FFF100" stroke-opacity="0.35"/>
<path d="M1316.89 191.01C1317.26 190.54 1317.52 190.152 1317.7 189.861C1183.43 173.841 1015.74 165.765 865.963 165.216C719.706 164.68 590.603 171.323 526.42 184.74C754.347 181.42 878.94 182.995 1088.69 208.187C1194.29 220.869 1251.68 216.055 1282.66 208.098C1298.14 204.12 1307 199.362 1311.99 195.625C1314.48 193.757 1316 192.144 1316.89 191.01Z" stroke="#FFF100" stroke-opacity="0.35"/>
</svg>
