<svg width="1415" height="309" viewBox="0 0 1415 309" fill="none" xmlns="http://www.w3.org/2000/svg">
<path d="M1414.17 122.122C1418.37 92.7843 1398.63 57.7234 1398.63 57.7234C905.222 50.9447 473.979 118.733 0 308.538C493.404 159.405 817.779 115.357 1383.09 186.52C1402.51 169.573 1409.96 151.46 1414.17 122.122Z" fill="white" fill-opacity="0.05"/>
<path d="M547.791 122.119C835.286 54.8097 1169.4 33.9956 1390.85 43.9678C1361.31 14.9405 1308.17 -1.45498 1235.45 0.101574C1063.11 7.35837 691.539 57.7213 547.791 122.119Z" fill="white" fill-opacity="0.05"/>
<path d="M543.898 193.298C674.109 163.796 1094.89 164.068 1375.3 197.616C1375.3 197.616 1355.88 244.139 1135.53 217.675C915.187 191.21 784.957 189.736 543.898 193.298Z" fill="white" fill-opacity="0.05"/>
</svg>
