<svg width="1043" height="231" viewBox="0 0 1043 231" fill="none" xmlns="http://www.w3.org/2000/svg">
<path d="M1013.17 151.891C1013.38 151.622 1013.55 151.39 1013.67 151.199C912.437 139.132 786.044 133.048 673.154 132.634C563.794 132.233 467.163 137.155 418.349 147.096C589.442 144.616 683.347 145.846 841.16 164.8C920.799 174.365 964.072 170.732 987.413 164.736C999.08 161.739 1005.75 158.156 1009.49 155.349C1011.36 153.946 1012.5 152.737 1013.17 151.891Z" stroke="#FFF100" stroke-opacity="0.4"/>
<path d="M913.363 8.47166C965.112 7.36478 1003.01 18.8508 1024.42 39.1329C865.613 32.1225 627.467 46.9097 421.313 94.4785C474.056 72.1098 564.313 52.1787 657.052 37.0861C752.775 21.5079 851.077 11.0947 913.363 8.47166Z" stroke="#FFF100" stroke-opacity="0.4"/>
<path d="M393.291 140.67C487.446 119.337 791.709 119.533 994.475 143.792C994.475 143.792 980.429 177.433 821.098 158.297C661.768 139.16 567.599 138.094 393.291 140.67Z" fill="#313D79"/>
<path d="M1022.58 89.2038C1025.61 67.99 1011.34 42.6377 1011.34 42.6377C654.561 37.736 342.731 86.753 0 224C356.778 116.163 591.331 84.3123 1000.1 135.77C1014.15 123.515 1019.54 110.418 1022.58 89.2038Z" fill="#272F59"/>
<path d="M1031.04 50.1337C1031.05 50.1443 1031.05 50.1552 1031.06 50.1665C1031.16 50.3551 1031.31 50.6355 1031.5 51.0003C1031.88 51.73 1032.43 52.7976 1033.07 54.1456C1034.36 56.842 1036.04 60.6577 1037.63 65.1327C1040.81 74.0972 1043.58 85.6464 1042.08 96.1329C1039.06 117.189 1033.74 130.139 1019.94 142.246C615.474 91.3519 381.517 122.034 30.928 227.187C369.283 93.2619 678.173 45.3144 1031.04 50.1337Z" stroke="#FFF100" stroke-opacity="0.4"/>
<path d="M396.105 89.2023C603.992 40.531 845.589 25.4804 1005.72 32.6913C984.354 11.7019 945.929 -0.153647 893.347 0.971885C768.726 6.21923 500.049 42.6363 396.105 89.2023Z" fill="#313D79"/>
</svg>
