<svg width="701" height="296" viewBox="0 0 701 296" fill="none" xmlns="http://www.w3.org/2000/svg">
<path d="M699.752 117.078C703.782 88.9519 684.854 55.3393 684.854 55.3393C211.831 48.8406 -201.599 113.828 -656 295.793C-182.977 152.821 128 110.592 669.956 178.816C688.579 162.569 695.723 145.204 699.752 117.078Z" fill="white" fill-opacity="0.06"/>
<path d="M-130.836 117.075C144.784 52.5457 465.099 32.5913 677.401 42.1517C649.077 14.3234 598.132 -1.39488 528.417 0.0973782C363.193 7.05443 6.97406 55.337 -130.836 117.075Z" fill="white" fill-opacity="0.06"/>
<path d="M-134.566 185.313C-9.73431 157.03 393.665 157.29 662.497 189.452C662.497 189.452 643.874 234.054 432.63 208.683C221.386 183.312 96.5348 181.898 -134.566 185.313Z" fill="white" fill-opacity="0.06"/>
</svg>
