<svg xmlns="http://www.w3.org/2000/svg">

<symbol id="facebook" viewBox="0 0 64 64"><path fill="currentColor" d="M25.7,7.6c1.2,0,2.4,0,3.6,0h0.5V1.4c-0.6-0.1-1.3-0.2-2-0.2c-1.2-0.1-2.4-0.1-3.7-0.1c-1.9,0-3.6,0.5-5.2,1.6  c-1.8,1.3-2.7,3.1-3.1,5.2c-0.2,0.9-0.2,1.8-0.2,2.7c0,1.4,0,2.8,0,4.2v0.5H9.7v6.9h5.9v17.4h7.2V22.1h5.9c0.3-2.3,0.6-4.6,0.9-6.9  c-0.5,0-0.9,0-1.3,0c-1.7,0-5.5,0-5.5,0s0-3.4,0.1-4.9C22.9,8.2,24.1,7.6,25.7,7.6"/></symbol>

<symbol id="linkedin" viewBox="0 0 64 64"><path fill="currentColor" d="M13.8,13.8h7.7v3.5h0.1c1.1-2,3.7-4.1,7.6-4.1c8.1,0,9.6,5.3,9.6,12.2v14.1h-8V27c0-3-0.1-6.8-4.1-6.8  c-4.2,0-4.8,3.2-4.8,6.6v12.7h-8V13.8z M4.8,1.1c2.6,0,4.6,2.1,4.6,4.6c0,2.6-2.1,4.6-4.6,4.6c-2.6,0-4.6-2.1-4.6-4.6C0.1,3.2,2.2,1.1,4.8,1.1   M0.8,13.8h8v25.7h-8V13.8z"/></symbol>

<symbol id="instagram" viewBox="0 0 64 64"><path fill="currentColor" d="M32.1,10.1c0,1.3-1,2.3-2.3,2.3c-1.3,0-2.3-1-2.3-2.3c0-1.3,1-2.3,2.3-2.3C31.1,7.7,32.1,8.8,32.1,10.1   M19.5,26.7c-3.5,0-6.3-2.9-6.3-6.4c0-3.5,2.9-6.3,6.4-6.3c3.5,0,6.3,2.9,6.3,6.4C25.9,23.9,23,26.7,19.5,26.7 M19.6,10.4  c-5.4,0-9.9,4.4-9.9,9.9c0,5.4,4.4,9.9,9.9,9.9c5.4,0,9.9-4.4,9.9-9.9S25,10.4,19.6,10.4 M34.9,29.9c-0.5,3.4-2.7,5.4-6.1,5.8  c-3.1,0.3-16.9,0.5-19.8-0.3c-2.8-0.8-4.3-2.7-4.8-5.4c-0.4-2.6-0.5-15.9,0-19.4c0.5-3.3,2.7-5.4,6.1-5.8C13.7,4.5,26,4.4,29.2,4.9  c3.4,0.5,5.4,2.7,5.8,6.1C35.4,14.2,35.5,26.5,34.9,29.9 M38.5,10.7c-0.3-2.5-1.2-4.8-3.1-6.6c-2-1.9-4.4-2.7-7-2.9  C23.8,1,13.1,0.9,9.3,1.5C5,2.2,2.2,4.7,1,9c-0.9,3.3-0.7,18.3-0.2,21.6c0.7,4.4,3.3,7.3,7.7,8.4c3,0.8,17.9,0.7,21.3,0.1  c4.4-0.7,7.3-3.3,8.4-7.7C39.1,28,38.8,13.7,38.5,10.7"/></symbol>

<symbol id="whatsapp" viewBox="0 0 128 128"><path fill="currentColor" class="cls-2" d="m106.52,21.44c-5.55-5.55-12.14-9.95-19.39-12.94-7.25-2.99-15.03-4.52-22.87-4.5C31.32,4,4.51,30.67,4.5,63.46c-.01,10.44,2.74,20.7,7.98,29.73l-8.48,30.8,31.67-8.27c8.77,4.75,18.58,7.24,28.55,7.23h.02c32.93,0,59.73-26.68,59.75-59.46.02-7.82-1.52-15.57-4.52-22.79-3-7.22-7.41-13.77-12.97-19.27Zm-39.52,98.15h-2.76c-8.89,0-17.62-2.38-25.27-6.89l-1.81-1.07-27.74,7.96,7.3-27.95-1.18-1.88c-4.97-7.87-7.6-16.99-7.59-26.3C6.45,36,35.4,7.17,62.79,7.17c13.14-.02,34.17,6.51,44.36,21.45,9.31,9.27,13.4,21.74,13.42,34.88,0,29.69-24.98,54.33-53.58,56.09Zm24.5-43.68c-1.49-.74-8.84-4.34-10.2-4.84-1.36-.5-2.37-.74-3.36.74-.99,1.49-3.86,4.82-4.73,5.83-.87,1-1.74,1.11-3.23.37-1.49-.74-6.31-2.31-12.01-7.37-4.44-3.94-7.43-8.8-8.3-10.29-.87-1.49-.09-2.29.65-3.03.67-.67,1.49-1.74,2.24-2.6.75-.87,1-1.49,1.49-2.48.5-.99.25-1.86-.12-2.6-.37-.74-3.36-8.06-4.6-11.03-1.21-2.9-2.44-2.5-3.36-2.55-.87-.04-1.87-.05-2.86-.05-.76.02-1.5.19-2.18.51-.68.32-1.3.78-1.8,1.34-1.37,1.49-5.23,5.09-5.23,12.4s5.36,14.38,6.1,15.37c.74.99,10.53,16,25.5,22.44,2.78,1.19,5.62,2.23,8.51,3.13,3.58,1.13,6.83.97,9.4.59,2.87-.43,8.84-3.59,10.08-7.07,1.24-3.47,1.24-6.44.87-7.06-.37-.62-1.37-.99-2.86-1.74Z"/></symbol>

<symbol id="youtube" viewBox="0 0 64 64"><path fill="currentColor" d="M42.4,10.8c-0.5-1.9-2-3.3-3.8-3.8c-3.4-0.9-16.8-0.9-16.8-0.9S8.3,6.1,4.9,7c-1.9,0.5-3.3,2-3.8,3.8  c-0.9,3.4-0.9,10.4-0.9,10.4s0,7,0.9,10.4c0.5,1.9,2,3.3,3.8,3.8c3.4,0.9,16.8,0.9,16.8,0.9s13.5,0,16.8-0.9c1.9-0.5,3.3-2,3.8-3.8  c0.9-3.4,0.9-10.4,0.9-10.4S43.3,14.2,42.4,10.8z M17.4,27.6V14.7l11.2,6.5L17.4,27.6z"/></symbol>

<symbol id="tiktok" viewBox="0 0 64 64"><path fill="currentColor" d="M27,14.4c2.6,1.8,5.8,2.9,9.2,2.9v-5.2c-1.9-0.4-3.6-1.4-4.9-2.8c-2.2-1.4-3.7-3.6-4.2-6.2h-4.8v26.3   c0,3.1-2.5,5.5-5.6,5.5c-1.8,0-3.4-0.9-4.4-2.2c-1.8-0.9-3.1-2.8-3.1-5c0-3.1,2.5-5.6,5.6-5.6c0.6,0,1.2,0.1,1.7,0.3v-5.2   C9.9,17.5,4.6,22.8,4.6,29.5c0,3.3,1.3,6.3,3.5,8.5c1.9,1.3,4.3,2.1,6.8,2.1C21.5,40,27,34.6,27,27.9V14.4z M16.5,17.3v-1.5c-0.6-0.1-1.1-0.1-1.7-0.1c-6.7,0-12.2,5.4-12.2,12.2c0,4.2,2.1,7.9,5.4,10.1   c-2.1-2.2-3.5-5.2-3.5-8.5C4.6,22.8,9.9,17.5,16.5,17.3 M27.1,3.2C27,2.9,27,2.7,27,2.4V1.6h-6.6v26.3c0,3.1-2.5,5.5-5.6,5.5   c-0.9,0-1.8-0.2-2.5-0.6c1,1.3,2.6,2.2,4.4,2.2c3.1,0,5.6-2.5,5.6-5.5V3.2H27.1z M36.1,12.2v-1.4c-1.7,0-3.4-0.5-4.9-1.4   C32.6,10.8,34.3,11.8,36.1,12.2"/></symbol>

</svg>
